<svg xmlns="http://www.w3.org/2000/svg" width="95" height="89">
    <path fill="#D6AB28" fill-rule="evenodd" d="M89.894 89H5.106C2.291 89 0 86.736 0 83.954V5.045C0 2.263 2.291-.001 5.106-.001h84.788C92.709-.001 95 2.263 95 5.045v78.909C95 86.736 92.709 89 89.894 89zM30.023 9.755H12.954c-1.208 0-2.188.968-2.188 2.162s.98 2.163 2.188 2.163h17.069c1.209 0 2.189-.969 2.189-2.163s-.98-2.162-2.189-2.162zm35.421-2.019c-2.333 0-4.231 1.876-4.231 4.181 0 2.306 1.898 4.181 4.231 4.181 2.332 0 4.23-1.875 4.23-4.181 0-2.305-1.898-4.181-4.23-4.181zm14.347 0c-2.333 0-4.231 1.876-4.231 4.181 0 2.306 1.898 4.181 4.231 4.181 2.332 0 4.23-1.875 4.23-4.181 0-2.305-1.898-4.181-4.23-4.181zm7.099 18.177H8.11v54.343c0 .363.299.658.667.658h77.446a.663.663 0 0 0 .667-.658V25.913zm-6.531 47.132a2.486 2.486 0 0 1-1.78-.744l-3.542-3.606a2.452 2.452 0 0 1-1.848 2.714 2.515 2.515 0 0 1-.61.075 2.476 2.476 0 0 1-2.403-1.85l-2.124-8.311a2.435 2.435 0 0 1 .651-2.333 2.505 2.505 0 0 1 2.361-.643l8.41 2.099c1.328.332 2.132 1.665 1.797 2.977-.309 1.209-1.48 1.977-2.701 1.831l3.568 3.633a2.43 2.43 0 0 1-.052 3.466 2.489 2.489 0 0 1-1.727.692zM54.533 59.696h-4.607c-.587 0-1.063-.47-1.063-1.05V42.143c0-.58.476-1.051 1.063-1.051h4.607c5.293 0 9.598 4.179 9.598 9.313 0 5.124-4.306 9.291-9.598 9.291zm0-15.002h-2.026v11.402h2.026c3.283 0 5.955-2.553 5.954-5.69 0-3.151-2.671-5.712-5.954-5.712zm-8.275 15.102h-1.629c-.442 0-.838-.27-.994-.679l-1.866-4.892h-5.381l-1.841 4.888a1.063 1.063 0 0 1-.996.684h-1.62c-.348 0-.674-.169-.873-.451a1.043 1.043 0 0 1-.123-.966l6.225-16.528c.155-.41.551-.683.994-.684l1.791-.003h.003c.442 0 .838.271.994.679l6.266 16.43c.072.142.113.303.113.472 0 .58-.476 1.05-1.063 1.05zm-7.196-12.67l-1.317 3.498h2.651l-1.334-3.498z"/>
</svg>
