<svg xmlns="http://www.w3.org/2000/svg" width="100" height="88">
    <path fill="#D6AB28" fill-rule="evenodd" d="M45.591.008H1.48C.668.008.01.665.01 1.475v86.52h5.881V74.797c0-.809.658-1.466 1.47-1.466h5.882c.811 0 1.47.657 1.47 1.466v13.198h32.348V1.475a1.47 1.47 0 0 0-1.47-1.467zM14.713 65.265a.733.733 0 0 1-.735.732H6.626a.733.733 0 0 1-.735-.732v-7.332c0-.405.329-.734.735-.734h7.352c.406 0 .735.329.735.734v7.332zm0-16.131a.734.734 0 0 1-.735.732H6.626a.734.734 0 0 1-.735-.732v-7.332c0-.405.329-.734.735-.734h7.352c.406 0 .735.329.735.734v7.332zm0-16.131a.734.734 0 0 1-.735.733H6.626a.734.734 0 0 1-.735-.733v-7.332c0-.405.329-.734.735-.734h7.352c.406 0 .735.329.735.734v7.332zm0-16.131a.734.734 0 0 1-.735.733H6.626a.734.734 0 0 1-.735-.733V9.54c0-.405.329-.733.735-.733h7.352c.406 0 .735.328.735.733v7.332zm13.233 48.393a.733.733 0 0 1-.735.732H19.86a.734.734 0 0 1-.736-.732v-7.332c0-.405.33-.734.736-.734h7.351c.406 0 .735.329.735.734v7.332zm0-16.131a.734.734 0 0 1-.735.732H19.86a.734.734 0 0 1-.736-.732v-7.332c0-.405.33-.734.736-.734h7.351c.406 0 .735.329.735.734v7.332zm0-16.131a.734.734 0 0 1-.735.733H19.86a.735.735 0 0 1-.736-.733v-7.332c0-.405.33-.734.736-.734h7.351c.406 0 .735.329.735.734v7.332zm0-16.131a.734.734 0 0 1-.735.733H19.86a.735.735 0 0 1-.736-.733V9.54c0-.405.33-.733.736-.733h7.351c.406 0 .735.328.735.733v7.332zm13.233 48.393a.732.732 0 0 1-.734.732h-7.352a.734.734 0 0 1-.736-.732v-7.332c0-.405.33-.734.736-.734h7.352c.406 0 .734.329.734.734v7.332zm0-16.131a.733.733 0 0 1-.734.732h-7.352a.734.734 0 0 1-.736-.732v-7.332c0-.405.33-.734.736-.734h7.352c.406 0 .734.329.734.734v7.332zm0-16.131a.733.733 0 0 1-.734.733h-7.352a.735.735 0 0 1-.736-.733v-7.332c0-.405.33-.734.736-.734h7.352c.406 0 .734.329.734.734v7.332zm0-16.131a.733.733 0 0 1-.734.733h-7.352a.735.735 0 0 1-.736-.733V9.54c0-.405.33-.733.736-.733h7.352c.406 0 .734.328.734.733v7.332zm57.743 25.362L54.811 29.86a1.47 1.47 0 0 0-1.868 1.413v56.722h5.881V76.263c0-.81.659-1.466 1.471-1.466h5.881c.812 0 1.469.656 1.469 1.466v11.732h32.349V43.646c0-.657-.439-1.235-1.072-1.412zM67.645 68.198a.732.732 0 0 1-.734.732h-7.352a.733.733 0 0 1-.735-.732v-7.334c0-.404.329-.731.735-.731h7.352c.406 0 .734.327.734.731v7.334zm0-16.131a.733.733 0 0 1-.734.732h-7.352a.734.734 0 0 1-.735-.732v-7.332c0-.405.329-.734.735-.734h7.352c.406 0 .734.329.734.734v7.332zm13.234 16.131a.733.733 0 0 1-.734.732h-7.352a.734.734 0 0 1-.736-.732v-7.334c0-.404.33-.731.736-.731h7.352c.405 0 .734.327.734.731v7.334zm0-16.131a.733.733 0 0 1-.734.732h-7.352a.734.734 0 0 1-.736-.732v-7.332c0-.405.33-.734.736-.734h7.352c.405 0 .734.329.734.734v7.332zm13.233 16.131a.732.732 0 0 1-.734.732h-7.352a.733.733 0 0 1-.735-.732v-7.334c0-.404.329-.731.735-.731h7.352c.406 0 .734.327.734.731v7.334zm0-16.131a.733.733 0 0 1-.734.732h-7.352a.734.734 0 0 1-.735-.732v-7.332c0-.405.329-.734.735-.734h7.352c.406 0 .734.329.734.734v7.332z"/>
</svg>
