<svg xmlns="http://www.w3.org/2000/svg" width="116" height="88">
    <path fill="#D6AB28" fill-rule="evenodd" d="M115.994 53.779c-.005.373-.017.744-.032 1.114a35.593 35.593 0 0 1-.386 4.211c-1.894 13.033-10.025 22.806-21.791 26.852-3.754 1.363-7.853 2.089-12.19 2.045L81.544 88l-.051.001c-4.337.044-8.436-.683-12.19-2.045-11.766-4.046-19.897-13.819-21.791-26.852a35.805 35.805 0 0 1-.387-4.211c-.015-.37-.026-.741-.032-1.114a39.548 39.548 0 0 1-.001-.77 29.506 29.506 0 0 1 .705-6.687c2.322-11.197 10.179-20.109 20.683-24.296 4.091-1.732 8.522-2.673 13.064-2.595 4.542-.078 8.973.863 13.063 2.595 10.505 4.187 18.362 13.099 20.683 24.296a29.45 29.45 0 0 1 .706 6.687c.001.256.002.512-.002.77zm-4.72-7.443c-2.071-7.912-6.977-14.5-13.572-18.588a29.591 29.591 0 0 0-2.363-1.32c-4.039-1.971-8.586-3.094-13.383-3.182-.138-.003-.275-.003-.413-.004-.137.001-.274.001-.412.004-4.797.088-9.344 1.211-13.383 3.182-.809.405-1.598.845-2.363 1.32-6.596 4.088-11.502 10.676-13.572 18.588A31.68 31.68 0 0 0 51 53.947c.031 2.419.302 4.73.785 6.921 1.18 4.698 3.321 8.987 6.283 12.568 5.38 6.506 13.463 10.677 23.39 10.728H81.629c9.927-.051 18.01-4.222 23.39-10.728 2.962-3.581 5.103-7.87 6.283-12.568.483-2.191.754-4.502.785-6.921a31.73 31.73 0 0 0-.813-7.611zM81.458 79.629c-15.35-.058-25.477-11.324-26.057-25.651-.172-13.935 11.693-26.272 26.036-26.175 13.979.096 26.135 10.151 26.124 25.896-.009 15.292-11.188 25.986-26.103 25.93zm.503-35.209c2.319 0 3.804.794 4.564 1.226l.906-2.379c-1.05-.61-2.533-1.187-4.708-1.258v-3.496h-2.248v3.639c-3.335.54-5.472 2.81-5.472 5.799 0 3.133 2.285 4.792 5.978 6.233 2.683 1.08 4.095 2.307 4.095 4.285 0 2.054-1.737 3.533-4.31 3.533-2.03 0-3.915-.687-5.22-1.55l-.869 2.413c1.268.9 3.442 1.55 5.544 1.586v3.638h2.283v-3.746c3.733-.614 5.723-3.279 5.723-6.126 0-3.205-1.88-5.08-5.613-6.59-3.155-1.297-4.495-2.235-4.495-4.107 0-1.444 1.05-3.1 3.842-3.1zM48.868 8.561L4.233 45.21 0 40.115 48.858-.001 72.015 18.85l-6.777 3.085-16.37-13.374zm11.973 15.836c-9.883 7-15.769 18.155-15.411 29.298-.004 7.097 1.972 13.896 5.723 19.741H7.655V49.118l41.619-34.171 11.567 9.45z"/>
</svg>
